# xmcd
#
# Track frame offsets:
#       150
#       14799
#       28067
#       44994
#       64859
#       76873
#       90367
#       108474
#       124647
#       143273
#       155281
#       171580
#       190912
#
# Disc length: 2712 seconds
#
# Revision: 1
# Processed by: cddbd v1.4PL0 Copyright (c) Steve Scherf et al.
# Submitted via: WhereIsIt 3.50
#
DISCID=ac0a960d
DTITLE=Vit Tucny - Bracho,zpivej dal
DYEAR=1999
DGENRE=Country
TTITLE0=Na Letny poprchava
TTITLE1=Whisky ma barvu tvych vlasu
TTITLE2=Usta do potkovy
TTITLE3=Mozna do setmeni
TTITLE4=Na Osade ptaku
TTITLE5=Pulnocni hrac
TTITLE6=Pivni kaple
TTITLE7=Brachuv dzip
TTITLE8=Mam brouka v hlave
TTITLE9=Trochu neuplny
TTITLE10=Bobuv hrob
TTITLE11=Modra z dzin
TTITLE12=Bracho,zpivej dal
EXTD=
EXTT0=
EXTT1=
EXTT2=
EXTT3=
EXTT4=
EXTT5=
EXTT6=
EXTT7=
EXTT8=
EXTT9=
EXTT10=
EXTT11=
EXTT12=
PLAYORDER=
